<svg viewBox="0 0 300 630" xmlns="http://www.w3.org/2000/svg">
  <rect width="300" height="630" fill="#ffffff"/>
  <text data-key="screen.g-add-esim-manual.title" x="24" y="53" font-family="ui-sans-serif,system-ui,sans-serif" font-size="16" font-weight="700" fill="#182746">Enter details manually</text>

  <text data-key="screen.g-add-esim-manual.address-label" x="24" y="110" font-family="ui-sans-serif,system-ui,sans-serif" font-size="11" fill="#5b6b8c">SM-DP+ ADDRESS</text>
  <rect x="20" y="118" width="260" height="52" rx="14" fill="#f5f5f7" stroke="#5b6b8c" stroke-width="3"/>
  <rect x="40" y="140" width="180" height="10" rx="5" fill="#182746"/>

  <text data-key="screen.g-add-esim-manual.code-label" x="24" y="194" font-family="ui-sans-serif,system-ui,sans-serif" font-size="11" fill="#5b6b8c">ACTIVATION CODE</text>
  <rect x="20" y="202" width="260" height="52" rx="14" fill="#f5f5f7" stroke="#5b6b8c" stroke-width="3"/>
  <rect x="40" y="224" width="140" height="10" rx="5" fill="#182746"/>

  <rect x="30" y="266" width="240" height="50" rx="10" fill="#5b6b8c"/>
  <text data-key="screen.g-add-esim-manual.next" data-maxw="224" x="150" y="298" text-anchor="middle" font-family="ui-sans-serif,system-ui,sans-serif" font-size="14" font-weight="700" fill="#ffffff">Add</text>
  <g opacity="0.999"><text x="24" y="27" font-family="ui-sans-serif,system-ui,sans-serif" font-size="14" font-weight="600" fill="#000000">9:41</text><g stroke="#000000" stroke-width="1.4" fill="none" opacity="0.85"><path d="M236 22 l4 -6 l4 6z" fill="#000000" stroke="none"/><path d="M248 22 a7 7 0 0 1 10 0" /><rect x="264" y="15" width="16" height="9" rx="2"/><rect x="266" y="17" width="9" height="5" fill="#000000" stroke="none"/></g><rect x="112" y="606" width="76" height="5" rx="2.5" fill="#182746" opacity="0.3"/></g>
<rect x="30" y="352" width="240" height="50" rx="10" fill="#f5f5f7"/><circle cx="58" cy="377" r="12" fill="#c9d2de"/><rect x="82" y="372" width="130" height="10" rx="5" fill="#c9d2de"/><rect x="30" y="418" width="240" height="50" rx="10" fill="#f5f5f7"/><circle cx="58" cy="443" r="12" fill="#c9d2de"/><rect x="82" y="438" width="104" height="10" rx="5" fill="#c9d2de"/><rect x="30" y="484" width="240" height="50" rx="10" fill="#f5f5f7"/><circle cx="58" cy="509" r="12" fill="#c9d2de"/><rect x="82" y="504" width="146" height="10" rx="5" fill="#c9d2de"/></svg>
