<svg viewBox="0 0 300 630" xmlns="http://www.w3.org/2000/svg">
  <rect width="300" height="630" fill="#0d1424"/><text x="24" y="27" font-family="ui-sans-serif,system-ui,sans-serif" font-size="14" font-weight="600" fill="#ffffff">9:41</text><g stroke="#ffffff" stroke-width="1.4" fill="none" opacity="0.85"><path d="M236 22 l4 -6 l4 6z" fill="#ffffff" stroke="none"/><path d="M248 22 a7 7 0 0 1 10 0"/><rect x="264" y="15" width="16" height="9" rx="2"/><rect x="266" y="17" width="9" height="5" fill="#ffffff" stroke="none"/></g>
  <text data-key="screen.g-add-esim-qr.title" x="150" y="53" text-anchor="middle" font-family="ui-sans-serif,system-ui,sans-serif" font-size="16" font-weight="600" fill="#ffffff">Scan QR code</text>

  <rect x="50" y="200" width="200" height="200" rx="16" fill="none" stroke="#ffffff" stroke-width="2" stroke-dasharray="10 8"/>
  <path d="M50 220 v-20 h20 M250 220 v-20 h-20 M50 380 v20 h20 M250 380 v20 h-20" stroke="#5b6b8c" stroke-width="6" fill="none" stroke-linecap="round"/>

  <g fill="#ffffff" opacity="0.9">
    <rect x="80" y="230" width="40" height="40"/>
    <rect x="180" y="230" width="40" height="40"/>
    <rect x="80" y="330" width="40" height="40"/>
    <rect x="140" y="280" width="20" height="20"/>
    <rect x="180" y="330" width="20" height="20"/>
    <rect x="210" y="360" width="10" height="10"/>
  </g>

  <text data-key="screen.g-add-esim-qr.hint" x="150" y="440" text-anchor="middle" font-family="ui-sans-serif,system-ui,sans-serif" font-size="13" fill="#baddff">Align the QR code inside the frame</text>
  <g opacity="0.999"><rect x="112" y="606" width="76" height="5" rx="2.5" fill="#ffffff" opacity="0.55"/></g>
<rect class="anim-scanline" x="62" y="228" width="176" height="3" rx="1.5" fill="#8fd0ff" style="--scan:150px"/></svg>
