<svg viewBox="0 0 300 630" xmlns="http://www.w3.org/2000/svg">
  <rect width="300" height="630" fill="#f5f5f7"/>
  <rect width="300" height="40" fill="#f5f5f7"/>
  <text x="24" y="27" font-family="ui-sans-serif,system-ui,sans-serif" font-size="14" font-weight="600" fill="#000000">9:41</text>
  <text data-key="screen.g-before-you-start.title" x="24" y="80" font-family="ui-sans-serif,system-ui,sans-serif" font-size="19" font-weight="700" fill="#182746">Settings</text>

  <rect x="20" y="112" width="260" height="56" rx="16" fill="#ffffff"/>
  <rect x="40" y="132" width="180" height="16" rx="8" fill="#e6eaf0"/>
  <text x="46" y="144" font-family="ui-sans-serif,system-ui,sans-serif" font-size="11" fill="#8e8e93">Search settings</text>

  <rect x="20" y="180" width="260" height="70" rx="16" fill="#ffffff" stroke="#5b6b8c" stroke-width="3"/>
  <circle cx="46" cy="215" r="14" fill="#5b6b8c"/>
  <text data-key="screen.g-before-you-start.row" x="70" y="220" font-family="ui-sans-serif,system-ui,sans-serif" font-size="14" font-weight="600" fill="#182746">eSIM / SIM manager</text>
  <g opacity="0.999"><rect x="20" y="270" width="260" height="56" rx="16" fill="#ffffff"/><circle cx="46" cy="298" r="12" fill="#c9d2de"/><rect x="70" y="293" width="130" height="10" rx="5" fill="#c9d2de"/><rect x="20" y="340" width="260" height="56" rx="16" fill="#ffffff"/><circle cx="46" cy="368" r="12" fill="#c9d2de"/><rect x="70" y="363" width="130" height="10" rx="5" fill="#c9d2de"/><rect x="20" y="410" width="260" height="56" rx="16" fill="#ffffff"/><circle cx="46" cy="438" r="12" fill="#c9d2de"/><rect x="70" y="433" width="130" height="10" rx="5" fill="#c9d2de"/><rect x="20" y="480" width="260" height="56" rx="16" fill="#ffffff"/><circle cx="46" cy="508" r="12" fill="#c9d2de"/><rect x="70" y="503" width="130" height="10" rx="5" fill="#c9d2de"/><rect x="112" y="606" width="76" height="5" rx="2.5" fill="#182746" opacity="0.3"/></g>
</svg>
