<svg viewBox="0 0 300 630" xmlns="http://www.w3.org/2000/svg">
  <rect width="300" height="630" fill="#ffffff"/>
  <g>
    <rect x="24" y="30" width="60" height="60" rx="18" fill="#e6eaf0"/>
    <rect x="120" y="30" width="60" height="60" rx="18" fill="#e6eaf0"/>
    <rect x="216" y="30" width="60" height="60" rx="18" fill="#dfe4ea" stroke="#5b6b8c" stroke-width="4"/>
    <circle cx="246" cy="60" r="14" fill="#5b6b8c"/>
    <rect x="24" y="120" width="60" height="60" rx="18" fill="#e6eaf0"/>
    <rect x="120" y="120" width="60" height="60" rx="18" fill="#e6eaf0"/>
    <rect x="216" y="120" width="60" height="60" rx="18" fill="#e6eaf0"/>
  </g>
  <text data-key="screen.g-open-settings.label" x="246" y="106" text-anchor="middle" font-family="ui-sans-serif,system-ui,sans-serif" font-size="11" fill="#182746">Settings</text>
  <g opacity="0.999"><text x="24" y="27" font-family="ui-sans-serif,system-ui,sans-serif" font-size="14" font-weight="600" fill="#000000">9:41</text><g stroke="#000000" stroke-width="1.4" fill="none" opacity="0.85"><path d="M236 22 l4 -6 l4 6z" fill="#000000" stroke="none"/><path d="M248 22 a7 7 0 0 1 10 0" /><rect x="264" y="15" width="16" height="9" rx="2"/><rect x="266" y="17" width="9" height="5" fill="#000000" stroke="none"/></g><rect x="24" y="210" width="60" height="60" rx="18" fill="#e6eaf0"/><rect x="120" y="210" width="60" height="60" rx="18" fill="#e6eaf0"/><rect x="216" y="210" width="60" height="60" rx="18" fill="#e6eaf0"/><rect x="24" y="300" width="60" height="60" rx="18" fill="#e6eaf0"/><rect x="120" y="300" width="60" height="60" rx="18" fill="#e6eaf0"/><rect x="216" y="300" width="60" height="60" rx="18" fill="#e6eaf0"/><rect x="24" y="390" width="60" height="60" rx="18" fill="#e6eaf0"/><rect x="120" y="390" width="60" height="60" rx="18" fill="#e6eaf0"/><rect x="216" y="390" width="60" height="60" rx="18" fill="#e6eaf0"/><rect x="112" y="606" width="76" height="5" rx="2.5" fill="#182746" opacity="0.3"/></g>
</svg>
