<svg viewBox="0 0 300 630" xmlns="http://www.w3.org/2000/svg">
  <rect width="300" height="630" fill="#ffffff"/>
  <g fill="#5b6b8c">
    <path d="M22 62 l-8 8 l8 8" stroke="#5b6b8c" stroke-width="2.4" fill="none" stroke-linecap="round" stroke-linejoin="round"/>
    <text data-key="screen.g-select-data-line.back" data-maxw="76" x="28" y="74" font-family="ui-sans-serif,system-ui,sans-serif" font-size="14">Network</text>
  </g>
  <text data-key="screen.g-select-data-line.title" data-maxw="176" x="192" y="74" text-anchor="middle" font-family="ui-sans-serif,system-ui,sans-serif" font-size="16" font-weight="700" fill="#182746">SIM cards</text>

  <text data-key="screen.g-select-data-line.section" x="32" y="100" font-family="ui-sans-serif,system-ui,sans-serif" font-size="11" fill="#8e8e93">MOBILE DATA</text>

  <rect x="16" y="108" width="268" height="58" rx="16" fill="#f5f5f7"/>
  <text data-key="screen.g-select-data-line.original" x="32" y="142" font-family="ui-sans-serif,system-ui,sans-serif" font-size="14" fill="#182746">Original SIM</text>

  <rect x="16" y="180" width="268" height="58" rx="16" fill="#ffffff" stroke="#5b6b8c" stroke-width="3"/>
  <text x="32" y="214" font-family="ui-sans-serif,system-ui,sans-serif" font-size="14" font-weight="700" fill="#182746">Telemeteor</text>
  <path d="M244 206 l8 8 l16 -18" stroke="#5b6b8c" stroke-width="3" fill="none" stroke-linecap="round" stroke-linejoin="round"/>
  <g opacity="0.999"><text x="24" y="27" font-family="ui-sans-serif,system-ui,sans-serif" font-size="14" font-weight="600" fill="#000000">9:41</text><g stroke="#000000" stroke-width="1.4" fill="none" opacity="0.85"><path d="M236 22 l4 -6 l4 6z" fill="#000000" stroke="none"/><path d="M248 22 a7 7 0 0 1 10 0" /><rect x="264" y="15" width="16" height="9" rx="2"/><rect x="266" y="17" width="9" height="5" fill="#000000" stroke="none"/></g><rect x="20" y="260" width="260" height="56" rx="16" fill="#f5f5f7"/><circle cx="46" cy="288" r="12" fill="#c9d2de"/><rect x="70" y="283" width="130" height="10" rx="5" fill="#c9d2de"/><rect x="20" y="330" width="260" height="56" rx="16" fill="#f5f5f7"/><circle cx="46" cy="358" r="12" fill="#c9d2de"/><rect x="70" y="353" width="130" height="10" rx="5" fill="#c9d2de"/><rect x="20" y="400" width="260" height="56" rx="16" fill="#f5f5f7"/><circle cx="46" cy="428" r="12" fill="#c9d2de"/><rect x="70" y="423" width="130" height="10" rx="5" fill="#c9d2de"/><rect x="112" y="606" width="76" height="5" rx="2.5" fill="#182746" opacity="0.3"/></g>
</svg>
