<svg viewBox="0 0 300 630" xmlns="http://www.w3.org/2000/svg">
  <rect width="300" height="630" fill="#ffffff"/>
  <text data-key="screen.p-open-sims.title" x="24" y="46" font-family="ui-sans-serif,system-ui,sans-serif" font-size="18" font-weight="700" fill="#182746">Network &amp; internet</text>
  <rect x="20" y="80" width="260" height="56" rx="16" fill="#f5f5f7"/>
  <rect x="40" y="98" width="140" height="10" rx="5" fill="#5b6b8c"/>
  <text x="46" y="118" font-family="ui-sans-serif,system-ui,sans-serif" font-size="10" fill="#5b6b8c">Internet</text>
  <rect x="20" y="146" width="260" height="90" rx="16" fill="#baddff" stroke="#e8710a" stroke-width="3"/>
  <circle cx="46" cy="181" r="12" fill="#e8710a"/>
  <text data-key="screen.p-open-sims.row" x="70" y="186" font-family="ui-sans-serif,system-ui,sans-serif" font-size="14" fill="#182746">SIMs</text>
  <g opacity="0.999"><text x="24" y="27" font-family="ui-sans-serif,system-ui,sans-serif" font-size="14" font-weight="600" fill="#000000">9:41</text><g stroke="#000000" stroke-width="1.4" fill="none" opacity="0.85"><path d="M236 22 l4 -6 l4 6z" fill="#000000" stroke="none"/><path d="M248 22 a7 7 0 0 1 10 0" /><rect x="264" y="15" width="16" height="9" rx="2"/><rect x="266" y="17" width="9" height="5" fill="#000000" stroke="none"/></g><rect x="20" y="270" width="260" height="56" rx="16" fill="#f5f5f7"/><circle cx="46" cy="298" r="12" fill="#c9d2de"/><rect x="70" y="293" width="130" height="10" rx="5" fill="#c9d2de"/><rect x="20" y="336" width="260" height="56" rx="16" fill="#f5f5f7"/><circle cx="46" cy="364" r="12" fill="#c9d2de"/><rect x="70" y="359" width="130" height="10" rx="5" fill="#c9d2de"/><rect x="20" y="402" width="260" height="56" rx="16" fill="#f5f5f7"/><circle cx="46" cy="430" r="12" fill="#c9d2de"/><rect x="70" y="425" width="130" height="10" rx="5" fill="#c9d2de"/><rect x="20" y="468" width="260" height="56" rx="16" fill="#f5f5f7"/><circle cx="46" cy="496" r="12" fill="#c9d2de"/><rect x="70" y="491" width="130" height="10" rx="5" fill="#c9d2de"/><rect x="112" y="606" width="76" height="5" rx="2.5" fill="#182746" opacity="0.3"/></g>
</svg>
