<svg viewBox="0 0 300 630" xmlns="http://www.w3.org/2000/svg">
  <rect width="300" height="630" fill="#f5f5f7"/>
  <rect width="300" height="40" fill="#f5f5f7"/>
  <text x="24" y="27" font-family="ui-sans-serif,system-ui,sans-serif" font-size="14" font-weight="600" fill="#000000">9:41</text>
  <g fill="#000000">
    <rect x="252" y="14" width="18" height="10" rx="2" fill="none" stroke="#000" stroke-width="1.2"/>
    <rect x="254" y="16" width="12" height="6" fill="#000"/>
  </g>

  <text data-key="screen.p-before-you-start.title" x="24" y="80" font-family="ui-sans-serif,system-ui,sans-serif" font-size="19" font-weight="700" fill="#182746">Network &amp; internet</text>

  <rect x="20" y="112" width="260" height="56" rx="16" fill="#ffffff"/>
  <circle cx="46" cy="140" r="12" fill="#baddff"/>
  <rect x="70" y="134" width="130" height="10" rx="5" fill="#182746"/>

  <rect x="20" y="178" width="260" height="70" rx="16" fill="#ffffff"/>
  <circle cx="46" cy="213" r="14" fill="#0b57d0"/>
  <text data-key="screen.p-before-you-start.row" x="70" y="218" font-family="ui-sans-serif,system-ui,sans-serif" font-size="14" font-weight="600" fill="#182746">SIMs</text>
  <g opacity="0.999"><rect x="20" y="270" width="260" height="56" rx="16" fill="#ffffff"/><circle cx="46" cy="298" r="12" fill="#c9d2de"/><rect x="70" y="293" width="130" height="10" rx="5" fill="#c9d2de"/><rect x="20" y="340" width="260" height="56" rx="16" fill="#ffffff"/><circle cx="46" cy="368" r="12" fill="#c9d2de"/><rect x="70" y="363" width="130" height="10" rx="5" fill="#c9d2de"/><rect x="20" y="410" width="260" height="56" rx="16" fill="#ffffff"/><circle cx="46" cy="438" r="12" fill="#c9d2de"/><rect x="70" y="433" width="130" height="10" rx="5" fill="#c9d2de"/><rect x="20" y="480" width="260" height="56" rx="16" fill="#ffffff"/><circle cx="46" cy="508" r="12" fill="#c9d2de"/><rect x="70" y="503" width="130" height="10" rx="5" fill="#c9d2de"/><rect x="112" y="606" width="76" height="5" rx="2.5" fill="#182746" opacity="0.3"/></g>
</svg>
