<svg viewBox="0 0 300 630" xmlns="http://www.w3.org/2000/svg">
  <rect width="300" height="630" fill="#f5f5f7"/>
  <rect width="300" height="40" fill="#f5f5f7"/>
  <text x="24" y="27" font-family="ui-sans-serif,system-ui,sans-serif" font-size="14" font-weight="600" fill="#000000">9:41</text>
  <g fill="#0b57d0">
    
    <text data-key="screen.p-select-data-line.back" data-maxw="112" x="28" y="74" font-family="ui-sans-serif,system-ui,sans-serif" font-size="14">Network &amp; internet</text>
  </g>
  <text data-key="screen.p-select-data-line.title" data-maxw="128" x="216" y="74" text-anchor="middle" font-family="ui-sans-serif,system-ui,sans-serif" font-size="16" font-weight="700" fill="#000000">SIMs</text>

  <text data-key="screen.p-select-data-line.section" x="32" y="100" font-family="ui-sans-serif,system-ui,sans-serif" font-size="11" fill="#8e8e93">MOBILE DATA</text>

  <rect x="16" y="108" width="268" height="58" rx="16" fill="#ffffff"/>
  <text data-key="screen.p-select-data-line.original" x="32" y="142" font-family="ui-sans-serif,system-ui,sans-serif" font-size="14" fill="#000000">Original SIM</text>

  <rect x="16" y="180" width="268" height="58" rx="16" fill="#ffffff"/>
  <text x="32" y="214" font-family="ui-sans-serif,system-ui,sans-serif" font-size="14" font-weight="700" fill="#000000">Telemeteor</text>
  
  <g opacity="0.999"><rect x="20" y="260" width="260" height="56" rx="16" fill="#ffffff"/><circle cx="46" cy="288" r="12" fill="#c9d2de"/><rect x="70" y="283" width="130" height="10" rx="5" fill="#c9d2de"/><rect x="20" y="330" width="260" height="56" rx="16" fill="#ffffff"/><circle cx="46" cy="358" r="12" fill="#c9d2de"/><rect x="70" y="353" width="130" height="10" rx="5" fill="#c9d2de"/><rect x="20" y="400" width="260" height="56" rx="16" fill="#ffffff"/><circle cx="46" cy="428" r="12" fill="#c9d2de"/><rect x="70" y="423" width="130" height="10" rx="5" fill="#c9d2de"/><rect x="112" y="606" width="76" height="5" rx="2.5" fill="#182746" opacity="0.3"/></g>
</svg>
