<svg viewBox="0 0 300 630" xmlns="http://www.w3.org/2000/svg">
  <rect width="300" height="630" fill="#ffffff"/>
  <text data-key="screen.p-add-sim.title" x="24" y="54" font-family="ui-sans-serif,system-ui,sans-serif" font-size="18" font-weight="700" fill="#182746">SIMs</text>
  <rect x="20" y="80" width="260" height="56" rx="16" fill="#f5f5f7"/>
  <rect x="40" y="98" width="140" height="10" rx="5" fill="#5b6b8c"/>
  <text x="46" y="118" font-family="ui-sans-serif,system-ui,sans-serif" font-size="10" fill="#5b6b8c">SIM 1</text>
  <rect x="30" y="156" width="240" height="56" rx="28" fill="#0b57d0"/>
  <text data-key="screen.p-add-sim.button" data-maxw="224" x="150" y="190" text-anchor="middle" font-family="ui-sans-serif,system-ui,sans-serif" font-size="15" font-weight="700" fill="#ffffff">Add SIM</text>
  <g opacity="0.999"><text x="24" y="27" font-family="ui-sans-serif,system-ui,sans-serif" font-size="14" font-weight="600" fill="#000000">9:41</text><g stroke="#000000" stroke-width="1.4" fill="none" opacity="0.85"><path d="M236 22 l4 -6 l4 6z" fill="#000000" stroke="none"/><path d="M248 22 a7 7 0 0 1 10 0" /><rect x="264" y="15" width="16" height="9" rx="2"/><rect x="266" y="17" width="9" height="5" fill="#000000" stroke="none"/></g><rect x="20" y="248" width="260" height="56" rx="16" fill="#f5f5f7"/><circle cx="46" cy="276" r="12" fill="#c9d2de"/><rect x="70" y="271" width="130" height="10" rx="5" fill="#c9d2de"/><rect x="20" y="314" width="260" height="56" rx="16" fill="#f5f5f7"/><circle cx="46" cy="342" r="12" fill="#c9d2de"/><rect x="70" y="337" width="130" height="10" rx="5" fill="#c9d2de"/><rect x="112" y="606" width="76" height="5" rx="2.5" fill="#182746" opacity="0.3"/><rect x="20" y="380" width="260" height="56" rx="16" fill="#f5f5f7"/><circle cx="46" cy="408" r="12" fill="#c9d2de"/><rect x="70" y="403" width="146" height="10" rx="5" fill="#c9d2de"/><rect x="20" y="446" width="260" height="56" rx="16" fill="#f5f5f7"/><circle cx="46" cy="474" r="12" fill="#c9d2de"/><rect x="70" y="469" width="112" height="10" rx="5" fill="#c9d2de"/><rect x="20" y="512" width="260" height="56" rx="16" fill="#f5f5f7"/><circle cx="46" cy="540" r="12" fill="#c9d2de"/><rect x="70" y="535" width="134" height="10" rx="5" fill="#c9d2de"/></g>
</svg>
