<svg viewBox="0 0 300 630" xmlns="http://www.w3.org/2000/svg"><rect width="300" height="630" fill="#0d1424"/><text x="24" y="30" font-family="ui-sans-serif,system-ui,sans-serif" font-size="14" font-weight="600" fill="#ffffff">9:41</text><g stroke="#ffffff" stroke-width="1.4" fill="none" opacity="0.85"><path d="M236 25 l4 -6 l4 6z" fill="#ffffff" stroke="none"/><path d="M248 25 a7 7 0 0 1 10 0"/><rect x="264" y="18" width="16" height="9" rx="2"/><rect x="266" y="20" width="9" height="5" fill="#ffffff" stroke="none"/></g><text data-key="screen.ts-airplane.panel" x="24" y="72" font-family="ui-sans-serif,system-ui,sans-serif" font-size="15" font-weight="600" fill="#ffffff" opacity="0.7">Quick settings</text><rect x="24" y="92" width="118" height="80" rx="20" fill="#232c40"/><rect x="21" y="89" width="124" height="86" rx="23" fill="none" stroke="#FF6600" stroke-width="3"/><path d="M83 118 l14 8 l0 6 l-14 -3 l0 10 l4 3 l0 4 l-9 -2 l-9 2 l0 -4 l4 -3 l0 -10 l-14 3 l0 -6 l14 -8 l0 -10 a3 3 0 0 1 6 0 z" fill="#8794ab"/><text data-key="screen.ts-airplane.label" x="83" y="162" text-anchor="middle" font-family="ui-sans-serif,system-ui,sans-serif" font-size="11" fill="#c9d2de">Airplane mode</text><rect x="158" y="92" width="118" height="80" rx="20" fill="#00A0FF"/><circle cx="217" cy="122" r="13" fill="none" stroke="#ffffff" stroke-width="3"/><path d="M217 116 v-8" stroke="#ffffff" stroke-width="3" stroke-linecap="round"/><text x="217" y="162" text-anchor="middle" font-family="ui-sans-serif,system-ui,sans-serif" font-size="11" fill="#ffffff">Wi-Fi</text><rect x="24" y="188" width="118" height="80" rx="20" fill="#232c40"/><rect x="158" y="188" width="118" height="80" rx="20" fill="#232c40"/><text data-key="screen.ts-airplane.hint" x="150" y="320" text-anchor="middle" font-family="ui-sans-serif,system-ui,sans-serif" font-size="13" fill="#8794ab">Make sure ✈️ is OFF</text><rect x="112" y="606" width="76" height="5" rx="2.5" fill="#ffffff" opacity="0.55"/></svg>