<svg viewBox="0 0 300 630" xmlns="http://www.w3.org/2000/svg"><rect width="300" height="630" fill="#ffffff"/><text x="24" y="30" font-family="ui-sans-serif,system-ui,sans-serif" font-size="14" font-weight="600" fill="#000000">9:41</text><g stroke="#000000" stroke-width="1.4" fill="none" opacity="0.85"><path d="M236 25 l4 -6 l4 6z" fill="#000000" stroke="none"/><path d="M248 25 a7 7 0 0 1 10 0"/><rect x="264" y="18" width="16" height="9" rx="2"/><rect x="266" y="20" width="9" height="5" fill="#000000" stroke="none"/></g><text data-key="screen.ts-data.title" x="24" y="72" font-family="ui-sans-serif,system-ui,sans-serif" font-size="19" font-weight="700" fill="#182746">Mobile data</text><text data-key="screen.ts-data.section" x="24" y="104" font-family="ui-sans-serif,system-ui,sans-serif" font-size="11" fill="#5b6b8c">USE MOBILE DATA FROM</text><rect x="18" y="120" width="264" height="60" rx="16" fill="#ffffff"/><circle cx="48" cy="150" r="13" fill="#5b6b8c"/><text data-key="screen.ts-data.original" x="76" y="155" font-family="ui-sans-serif,system-ui,sans-serif" font-size="15" font-weight="500" fill="#182746">Original SIM</text><rect x="18" y="192" width="264" height="60" rx="16" fill="#ffffff" stroke="#FF6600" stroke-width="3"/><circle cx="48" cy="222" r="13" fill="#FF6600"/><text data-key="screen.ts-data.esim" x="76" y="227" font-family="ui-sans-serif,system-ui,sans-serif" font-size="15" font-weight="700" fill="#182746">Telemeteor eSIM</text><path d="M250 216 l7 7 l13 -15" stroke="#FF6600" stroke-width="3" fill="none" stroke-linecap="round" stroke-linejoin="round"/><rect x="112" y="606" width="76" height="5" rx="2.5" fill="#182746" opacity="0.3"/><rect x="20" y="280" width="260" height="56" rx="16" fill="#f5f5f7"/><circle cx="46" cy="308" r="12" fill="#c9d2de"/><rect x="70" y="303" width="130" height="10" rx="5" fill="#c9d2de"/><rect x="20" y="350" width="260" height="56" rx="16" fill="#f5f5f7"/><circle cx="46" cy="378" r="12" fill="#c9d2de"/><rect x="70" y="373" width="130" height="10" rx="5" fill="#c9d2de"/><rect x="20" y="420" width="260" height="56" rx="16" fill="#f5f5f7"/><circle cx="46" cy="448" r="12" fill="#c9d2de"/><rect x="70" y="443" width="130" height="10" rx="5" fill="#c9d2de"/></svg>