<svg viewBox="0 0 300 630" xmlns="http://www.w3.org/2000/svg"><rect width="300" height="630" fill="#ffffff"/><text x="24" y="30" font-family="ui-sans-serif,system-ui,sans-serif" font-size="14" font-weight="600" fill="#000000">9:41</text><g stroke="#000000" stroke-width="1.4" fill="none" opacity="0.85"><path d="M236 25 l4 -6 l4 6z" fill="#000000" stroke="none"/><path d="M248 25 a7 7 0 0 1 10 0"/><rect x="264" y="18" width="16" height="9" rx="2"/><rect x="266" y="20" width="9" height="5" fill="#000000" stroke="none"/></g><text data-key="screen.ts-network.title" x="24" y="72" font-family="ui-sans-serif,system-ui,sans-serif" font-size="19" font-weight="700" fill="#182746">Network selection</text><rect x="18" y="104" width="264" height="54" rx="16" fill="#ffffff"/><text data-key="screen.ts-network.auto" x="32" y="136" font-family="ui-sans-serif,system-ui,sans-serif" font-size="15" font-weight="500" fill="#182746">Automatic</text><rect x="222" y="118" width="46" height="26" rx="13" fill="#c9d2de"/><circle cx="237" cy="131" r="10" fill="#ffffff"/><text data-key="screen.ts-network.available" x="24" y="188" font-family="ui-sans-serif,system-ui,sans-serif" font-size="11" fill="#5b6b8c">AVAILABLE NETWORKS</text><rect x="18" y="200" width="264" height="54" rx="14" fill="#ffffff" stroke="#FF6600" stroke-width="3"/><text x="32" y="232" font-family="ui-sans-serif,system-ui,sans-serif" font-size="15" font-weight="700" fill="#182746">Operator 1</text><path d="M250 226 l7 7 l13 -15" stroke="#FF6600" stroke-width="3" fill="none" stroke-linecap="round" stroke-linejoin="round"/><rect x="18" y="264" width="264" height="54" rx="14" fill="#f5f5f7"/><text x="32" y="296" font-family="ui-sans-serif,system-ui,sans-serif" font-size="15" fill="#5b6b8c">Operator 2</text><rect x="112" y="606" width="76" height="5" rx="2.5" fill="#182746" opacity="0.3"/></svg>