<svg viewBox="0 0 300 630" xmlns="http://www.w3.org/2000/svg"><rect width="300" height="630" fill="#eef3fb"/><text x="24" y="30" font-family="ui-sans-serif,system-ui,sans-serif" font-size="14" font-weight="600" fill="#000000">9:41</text><g stroke="#000000" stroke-width="1.4" fill="none" opacity="0.85"><path d="M236 25 l4 -6 l4 6z" fill="#000000" stroke="none"/><path d="M248 25 a7 7 0 0 1 10 0"/><rect x="264" y="18" width="16" height="9" rx="2"/><rect x="266" y="20" width="9" height="5" fill="#000000" stroke="none"/></g><circle cx="150" cy="250" r="90" fill="#BADDFF" opacity="0.5"/><path d="M150 195 c-26 0 -46 20 -46 46 c0 34 46 74 46 74 c0 0 46 -40 46 -74 c0 -26 -20 -46 -46 -46z" fill="#FF6600"/><circle cx="150" cy="241" r="17" fill="#ffffff"/><text data-key="screen.ts-region.title" x="150" y="410" text-anchor="middle" font-family="ui-sans-serif,system-ui,sans-serif" font-size="18" font-weight="700" fill="#182746">Your destination</text><text data-key="screen.ts-region.hint" x="150" y="438" text-anchor="middle" font-family="ui-sans-serif,system-ui,sans-serif" font-size="13" fill="#5b6b8c">The eSIM works here</text><rect x="112" y="606" width="76" height="5" rx="2.5" fill="#182746" opacity="0.3"/></svg>