<svg viewBox="0 0 300 630" xmlns="http://www.w3.org/2000/svg"><rect width="300" height="630" fill="#0d1424"/><text x="24" y="30" font-family="ui-sans-serif,system-ui,sans-serif" font-size="14" font-weight="600" fill="#ffffff">9:41</text><g stroke="#ffffff" stroke-width="1.4" fill="none" opacity="0.85"><path d="M236 25 l4 -6 l4 6z" fill="#ffffff" stroke="none"/><path d="M248 25 a7 7 0 0 1 10 0"/><rect x="264" y="18" width="16" height="9" rx="2"/><rect x="266" y="20" width="9" height="5" fill="#ffffff" stroke="none"/></g><text data-key="screen.ts-restart.label" x="150" y="150" text-anchor="middle" font-family="ui-sans-serif,system-ui,sans-serif" font-size="16" fill="#c9d2de">Slide to power off</text><rect x="40" y="190" width="220" height="64" rx="32" fill="#232c40"/><circle cx="72" cy="222" r="24" fill="#FF6600"/><path d="M72 210 v14 M64 214 a12 12 0 1 0 16 0" stroke="#ffffff" stroke-width="3" fill="none" stroke-linecap="round"/><path d="M150 214 l14 8 l-14 8" fill="none" stroke="#8794ab" stroke-width="2"/><text data-key="screen.ts-restart.hint" x="150" y="320" text-anchor="middle" font-family="ui-sans-serif,system-ui,sans-serif" font-size="13" fill="#8794ab">…then turn it back on</text><rect x="112" y="606" width="76" height="5" rx="2.5" fill="#ffffff" opacity="0.55"/></svg>