<svg viewBox="0 0 300 630" xmlns="http://www.w3.org/2000/svg"><rect width="300" height="630" fill="#ffffff"/><text x="24" y="30" font-family="ui-sans-serif,system-ui,sans-serif" font-size="14" font-weight="600" fill="#000000">9:41</text><g stroke="#000000" stroke-width="1.4" fill="none" opacity="0.85"><path d="M236 25 l4 -6 l4 6z" fill="#000000" stroke="none"/><path d="M248 25 a7 7 0 0 1 10 0"/><rect x="264" y="18" width="16" height="9" rx="2"/><rect x="266" y="20" width="9" height="5" fill="#000000" stroke="none"/></g><text data-key="screen.ts-roaming.title" x="24" y="72" font-family="ui-sans-serif,system-ui,sans-serif" font-size="19" font-weight="700" fill="#182746">Telemeteor eSIM</text><rect x="18" y="104" width="264" height="58" rx="16" fill="#ffffff"/><text data-key="screen.ts-roaming.line" x="32" y="138" font-family="ui-sans-serif,system-ui,sans-serif" font-size="15" font-weight="500" fill="#182746">Turn on this line</text><rect x="222" y="119" width="46" height="26" rx="13" fill="#FF6600"/><circle cx="255" cy="132" r="10" fill="#ffffff"/><rect x="18" y="180" width="264" height="58" rx="16" fill="#ffffff" stroke="#FF6600" stroke-width="3"/><text data-key="screen.ts-roaming.label" x="32" y="215" font-family="ui-sans-serif,system-ui,sans-serif" font-size="15" font-weight="700" fill="#182746">Data roaming</text><rect x="220" y="196" width="50" height="26" rx="13" fill="#FF6600"/><circle cx="254" cy="209" r="10" fill="#ffffff"/><text data-key="screen.ts-roaming.hint" x="24" y="272" font-family="ui-sans-serif,system-ui,sans-serif" font-size="12" fill="#5b6b8c">Allow data while abroad</text><rect x="112" y="606" width="76" height="5" rx="2.5" fill="#182746" opacity="0.3"/></svg>