<svg viewBox="0 0 300 630" xmlns="http://www.w3.org/2000/svg">
  <rect width="300" height="630" fill="#ffffff"/>
  <text data-key="screen.s-open-connections.title" x="24" y="56" font-family="ui-sans-serif,system-ui,sans-serif" font-size="20" font-weight="700" fill="#182746">Settings</text>
  <rect x="20" y="80" width="260" height="56" rx="16" fill="#f5f5f7"/>
  <rect x="40" y="98" width="140" height="10" rx="5" fill="#5b6b8c"/>
  <rect x="20" y="146" width="260" height="56" rx="16" fill="#baddff"/>
  <circle cx="46" cy="174" r="12" fill="#1447e6"/>
  <text data-key="screen.s-open-connections.row" x="70" y="179" font-family="ui-sans-serif,system-ui,sans-serif" font-size="15" fill="#182746">Connections</text>
  <rect x="20" y="212" width="260" height="56" rx="16" fill="#f5f5f7"/>
  <rect x="40" y="230" width="120" height="10" rx="5" fill="#5b6b8c"/>
  <g opacity="0.999"><text x="24" y="27" font-family="ui-sans-serif,system-ui,sans-serif" font-size="14" font-weight="600" fill="#000000">9:41</text><g stroke="#000000" stroke-width="1.4" fill="none" opacity="0.85"><path d="M236 22 l4 -6 l4 6z" fill="#000000" stroke="none"/><path d="M248 22 a7 7 0 0 1 10 0" /><rect x="264" y="15" width="16" height="9" rx="2"/><rect x="266" y="17" width="9" height="5" fill="#000000" stroke="none"/></g><rect x="20" y="290" width="260" height="56" rx="16" fill="#f5f5f7"/><circle cx="46" cy="318" r="12" fill="#c9d2de"/><rect x="70" y="313" width="130" height="10" rx="5" fill="#c9d2de"/><rect x="20" y="356" width="260" height="56" rx="16" fill="#f5f5f7"/><circle cx="46" cy="384" r="12" fill="#c9d2de"/><rect x="70" y="379" width="130" height="10" rx="5" fill="#c9d2de"/><rect x="20" y="422" width="260" height="56" rx="16" fill="#f5f5f7"/><circle cx="46" cy="450" r="12" fill="#c9d2de"/><rect x="70" y="445" width="130" height="10" rx="5" fill="#c9d2de"/><rect x="20" y="488" width="260" height="56" rx="16" fill="#f5f5f7"/><circle cx="46" cy="516" r="12" fill="#c9d2de"/><rect x="70" y="511" width="130" height="10" rx="5" fill="#c9d2de"/><rect x="112" y="606" width="76" height="5" rx="2.5" fill="#182746" opacity="0.3"/></g>
</svg>
