<svg viewBox="0 0 300 630" xmlns="http://www.w3.org/2000/svg">
  <rect width="300" height="630" fill="#f5f5f7"/>
  <rect x="30" y="210" width="240" height="230" rx="20" fill="#ffffff"/>
  <circle cx="150" cy="258" r="24" fill="#baddff"/>
  <g fill="none" stroke="#182746" stroke-width="2.4">
    <rect x="140" y="248" width="20" height="14" rx="3"/>
    <path d="M144 248 v-4 a6 6 0 0 1 12 0 v4"/>
  </g>
  <text data-key="screen.s-add-esim-prefilled.title" x="150" y="314" text-anchor="middle" font-family="ui-sans-serif,system-ui,sans-serif" font-size="17" font-weight="700" fill="#182746">Add eSIM</text>
  <text data-key="screen.s-add-esim-prefilled.subtitle" x="150" y="336" text-anchor="middle" font-family="ui-sans-serif,system-ui,sans-serif" font-size="11" fill="#5b6b8c">Details filled in automatically</text>
  <rect x="60" y="374" width="180" height="48" rx="10" fill="#1447e6"/>
  <text data-key="screen.s-add-esim-prefilled.button" data-maxw="164" x="150" y="404" text-anchor="middle" font-family="ui-sans-serif,system-ui,sans-serif" font-size="14" font-weight="700" fill="#ffffff">Continue</text>
  <g opacity="0.999"><text x="24" y="27" font-family="ui-sans-serif,system-ui,sans-serif" font-size="14" font-weight="600" fill="#000000">9:41</text><g stroke="#000000" stroke-width="1.4" fill="none" opacity="0.85"><path d="M236 22 l4 -6 l4 6z" fill="#000000" stroke="none"/><path d="M248 22 a7 7 0 0 1 10 0" /><rect x="264" y="15" width="16" height="9" rx="2"/><rect x="266" y="17" width="9" height="5" fill="#000000" stroke="none"/></g><rect x="112" y="606" width="76" height="5" rx="2.5" fill="#182746" opacity="0.3"/></g>
</svg>
