<svg viewBox="0 0 300 630" xmlns="http://www.w3.org/2000/svg">
  <rect width="300" height="630" fill="#ffffff"/>
  <text data-key="screen.s-open-sim-manager.title" x="24" y="46" font-family="ui-sans-serif,system-ui,sans-serif" font-size="20" font-weight="700" fill="#182746">Connections</text>
  <rect x="20" y="80" width="260" height="56" rx="16" fill="#f5f5f7"/>
  <rect x="40" y="98" width="140" height="10" rx="5" fill="#5b6b8c"/>
  <rect x="20" y="146" width="260" height="56" rx="16" fill="#f5f5f7"/>
  <rect x="40" y="164" width="120" height="10" rx="5" fill="#5b6b8c"/>
  <rect x="20" y="212" width="260" height="90" rx="16" fill="#f5f5f7"/>
  <text x="40" y="234" font-family="ui-sans-serif,system-ui,sans-serif" font-size="11" fill="#5b6b8c">MORE CONNECTION SETTINGS</text>
  <rect x="20" y="316" width="260" height="56" rx="16" fill="#baddff" stroke="#1447e6" stroke-width="3"/>
  <circle cx="46" cy="344" r="12" fill="#1447e6"/>
  <text data-key="screen.s-open-sim-manager.row" x="70" y="349" font-family="ui-sans-serif,system-ui,sans-serif" font-size="15" fill="#182746">SIM card manager</text>
  <g opacity="0.999"><text x="24" y="27" font-family="ui-sans-serif,system-ui,sans-serif" font-size="14" font-weight="600" fill="#000000">9:41</text><g stroke="#000000" stroke-width="1.4" fill="none" opacity="0.85"><path d="M236 22 l4 -6 l4 6z" fill="#000000" stroke="none"/><path d="M248 22 a7 7 0 0 1 10 0" /><rect x="264" y="15" width="16" height="9" rx="2"/><rect x="266" y="17" width="9" height="5" fill="#000000" stroke="none"/></g><rect x="20" y="395" width="260" height="56" rx="16" fill="#f5f5f7"/><circle cx="46" cy="423" r="12" fill="#c9d2de"/><rect x="70" y="418" width="130" height="10" rx="5" fill="#c9d2de"/><rect x="20" y="461" width="260" height="56" rx="16" fill="#f5f5f7"/><circle cx="46" cy="489" r="12" fill="#c9d2de"/><rect x="70" y="484" width="130" height="10" rx="5" fill="#c9d2de"/><rect x="20" y="527" width="260" height="56" rx="16" fill="#f5f5f7"/><circle cx="46" cy="555" r="12" fill="#c9d2de"/><rect x="70" y="550" width="130" height="10" rx="5" fill="#c9d2de"/><rect x="112" y="606" width="76" height="5" rx="2.5" fill="#182746" opacity="0.3"/></g>
</svg>
