<svg viewBox="0 0 300 630" xmlns="http://www.w3.org/2000/svg">
  <rect width="300" height="630" fill="#f5f5f7"/>
  <rect width="300" height="40" fill="#f5f5f7"/>
  <text x="24" y="27" font-family="ui-sans-serif,system-ui,sans-serif" font-size="14" font-weight="600" fill="#000000">9:41</text>
  <g fill="#000000">
    <rect x="252" y="14" width="18" height="10" rx="2" fill="none" stroke="#000" stroke-width="1.2"/>
    <rect x="254" y="16" width="12" height="6" fill="#000"/>
  </g>
  <g fill="#1447e6">
    <path d="M22 62 l-8 8 l8 8" stroke="#1447e6" stroke-width="2.4" fill="none" stroke-linecap="round" stroke-linejoin="round"/>
    <text data-key="screen.s-enable-roaming.back" x="28" y="74" font-family="ui-sans-serif,system-ui,sans-serif" font-size="14">Connections</text>
  </g>
  <text x="170" y="74" text-anchor="middle" font-family="ui-sans-serif,system-ui,sans-serif" font-size="16" font-weight="700" fill="#000000">Telemeteor</text>

  <rect x="16" y="104" width="268" height="58" rx="16" fill="#ffffff"/>
  <text x="32" y="138" font-family="ui-sans-serif,system-ui,sans-serif" font-size="14" fill="#000000">Turn on this SIM</text>
  <rect x="238" y="119" width="36" height="20" rx="10" fill="#34c759"/>
  <circle cx="264" cy="129" r="8" fill="#ffffff"/>

  <rect x="16" y="176" width="268" height="128" rx="16" fill="#ffffff"/>
  <text x="32" y="204" font-family="ui-sans-serif,system-ui,sans-serif" font-size="14" fill="#000000">Network mode</text>
  <text x="268" y="204" text-anchor="end" fill="#8e8e93" font-family="ui-sans-serif,system-ui,sans-serif" font-size="13">5G/LTE</text>
  <line x1="32" y1="216" x2="284" y2="216" stroke="#e5e5ea" stroke-width="1"/>

  <text data-key="screen.s-enable-roaming.roaming" x="32" y="244" font-family="ui-sans-serif,system-ui,sans-serif" font-size="14" font-weight="700" fill="#000000">Data roaming</text>
  <rect x="238" y="229" width="36" height="20" rx="10" fill="#34c759"/>
  <circle cx="264" cy="239" r="8" fill="#ffffff"/>
  <line x1="32" y1="256" x2="284" y2="256" stroke="#e5e5ea" stroke-width="1"/>

  <text x="32" y="284" font-family="ui-sans-serif,system-ui,sans-serif" font-size="14" fill="#000000">Mobile data usage</text>
</svg>
