<svg viewBox="0 0 300 630" xmlns="http://www.w3.org/2000/svg">
  <rect width="300" height="630" fill="#f2f2f7"/>
  <rect width="300" height="44" fill="#f2f2f7"/>
  <text x="24" y="30" font-family="ui-sans-serif,-apple-system,system-ui,sans-serif" font-size="15" font-weight="600" fill="#000000">9:41</text>
  <g fill="#000000">
    <rect x="228" y="18" width="16" height="10" rx="2" fill="none" stroke="#000" stroke-width="1.2"/>
    <rect x="230" y="20" width="10" height="6" fill="#000"/>
    <rect x="246" y="16" width="3" height="12" rx="1"/>
  </g>
  <g fill="#007aff">
    <path d="M22 66 l-8 8 l8 8" stroke="#007aff" stroke-width="2.4" fill="none" stroke-linecap="round" stroke-linejoin="round"/>
    <text data-key="screen.select-data-line.back" x="28" y="78" font-family="ui-sans-serif,-apple-system,system-ui,sans-serif" font-size="15">Cellular</text>
  </g>
  <text data-key="screen.select-data-line.title" x="180" y="78" text-anchor="middle" font-family="ui-sans-serif,-apple-system,system-ui,sans-serif" font-size="17" font-weight="700" fill="#000000">Mobile Data</text>

  <text data-key="screen.select-data-line.section" x="32" y="104" font-family="ui-sans-serif,-apple-system,system-ui,sans-serif" font-size="12" fill="#8e8e93">MOBILE DATA</text>

  <rect x="16" y="112" width="268" height="58" rx="14" fill="#ffffff"/>
  <text data-key="screen.select-data-line.original" x="32" y="146" font-family="ui-sans-serif,-apple-system,system-ui,sans-serif" font-size="15" fill="#000000">Original SIM</text>
  <path d="M250 140 l7 7 l13 -15" stroke="#8e8e93" stroke-width="0" fill="none"/>

  <rect x="16" y="184" width="268" height="58" rx="14" fill="#ffffff" stroke="#ff6600" stroke-width="3"/>
  <text x="32" y="218" font-family="ui-sans-serif,-apple-system,system-ui,sans-serif" font-size="15" font-weight="700" fill="#000000">Telemeteor</text>
  <path d="M244 210 l8 8 l16 -18" stroke="#007aff" stroke-width="3" fill="none" stroke-linecap="round" stroke-linejoin="round"/>

  <text data-key="screen.select-data-line.footnote" x="32" y="272" font-family="ui-sans-serif,-apple-system,system-ui,sans-serif" font-size="12" fill="#8e8e93">Data is used from the selected line.</text>
</svg>
