<svg viewBox="0 0 300 630" xmlns="http://www.w3.org/2000/svg">
  <rect width="300" height="630" fill="#f4f6fa"/><g opacity="0.55"><text x="24" y="30" font-family="ui-sans-serif,system-ui,sans-serif" font-size="14" font-weight="600" fill="#182746">9:41</text><g stroke="#182746" stroke-width="1.4" fill="none" opacity="0.75"><path d="M236 25 l4 -6 l4 6z" fill="#182746" stroke="none"/><path d="M248 25 a7 7 0 0 1 10 0"/><rect x="264" y="18" width="16" height="9" rx="2"/><rect x="266" y="20" width="9" height="5" fill="#182746" stroke="none"/></g><rect x="18" y="100" width="264" height="56" rx="16" fill="#ffffff"/><circle cx="46" cy="128" r="12" fill="#c9d2de"/><rect x="70" y="123" width="130" height="10" rx="5" fill="#c9d2de"/><rect x="18" y="164" width="264" height="56" rx="16" fill="#ffffff"/><circle cx="46" cy="192" r="12" fill="#c9d2de"/><rect x="70" y="187" width="104" height="10" rx="5" fill="#c9d2de"/><rect x="18" y="228" width="264" height="56" rx="16" fill="#ffffff"/><circle cx="46" cy="256" r="12" fill="#c9d2de"/><rect x="70" y="251" width="146" height="10" rx="5" fill="#c9d2de"/><rect x="18" y="292" width="264" height="56" rx="16" fill="#ffffff"/><circle cx="46" cy="320" r="12" fill="#c9d2de"/><rect x="70" y="315" width="118" height="10" rx="5" fill="#c9d2de"/><rect x="18" y="356" width="264" height="56" rx="16" fill="#ffffff"/><circle cx="46" cy="384" r="12" fill="#c9d2de"/><rect x="70" y="379" width="136" height="10" rx="5" fill="#c9d2de"/><rect x="18" y="420" width="264" height="56" rx="16" fill="#ffffff"/><circle cx="46" cy="448" r="12" fill="#c9d2de"/><rect x="70" y="443" width="112" height="10" rx="5" fill="#c9d2de"/><rect x="18" y="484" width="264" height="56" rx="16" fill="#ffffff"/><circle cx="46" cy="512" r="12" fill="#c9d2de"/><rect x="70" y="507" width="142" height="10" rx="5" fill="#c9d2de"/></g><rect width="300" height="630" fill="#182746" opacity="0.45"/>
  <rect x="26" y="216" width="248" height="266" rx="26" fill="#ffffff"/>
  <circle cx="150" cy="270" r="26" fill="#baddff"/>
  <path d="M138 270 l9 9 l16 -18" stroke="#182746" stroke-width="5" fill="none" stroke-linecap="round" stroke-linejoin="round"/>
  <text data-key="screen.confirm-install.title" x="150" y="330" text-anchor="middle" font-family="ui-sans-serif,system-ui,sans-serif" font-size="17" font-weight="700" fill="#182746">Install Cellular Plan?</text>
  <text data-key="screen.confirm-install.subtitle" x="150" y="354" text-anchor="middle" font-family="ui-sans-serif,system-ui,sans-serif" font-size="11" fill="#5b6b8c">A new plan will be added</text>
  
  <text data-key="screen.confirm-install.cancel" data-maxw="200" x="150" y="464" text-anchor="middle" font-family="ui-sans-serif,system-ui,sans-serif" font-size="12" fill="#182746">Cancel</text>
  <rect x="50" y="392" width="200" height="44" rx="22" fill="#007aff"/>
  <text data-key="screen.confirm-install.install" data-maxw="184" x="150" y="420" text-anchor="middle" font-family="ui-sans-serif,system-ui,sans-serif" font-size="13" font-weight="700" fill="#ffffff">Install</text>
<rect x="112" y="606" width="76" height="5" rx="2.5" fill="#ffffff" opacity="0.6"/></svg>
