<svg viewBox="0 0 300 630" xmlns="http://www.w3.org/2000/svg">
  <rect width="300" height="630" fill="#ffffff"/><text x="24" y="27" font-family="ui-sans-serif,system-ui,sans-serif" font-size="14" font-weight="600" fill="#182746">9:41</text><g stroke="#182746" stroke-width="1.4" fill="none" opacity="0.85"><path d="M236 22 l4 -6 l4 6z" fill="#182746" stroke="none"/><path d="M248 22 a7 7 0 0 1 10 0"/><rect x="264" y="15" width="16" height="9" rx="2"/><rect x="266" y="17" width="9" height="5" fill="#182746" stroke="none"/></g>
  <text data-key="screen.enter-manually.title" x="24" y="54" font-family="ui-sans-serif,system-ui,sans-serif" font-size="18" font-weight="700" fill="#182746">Enter Details</text>

  <text data-key="screen.enter-manually.address-label" x="24" y="196" font-family="ui-sans-serif,system-ui,sans-serif" font-size="11" fill="#5b6b8c">SM-DP+ ADDRESS</text>
  <rect x="20" y="204" width="260" height="52" rx="14" fill="#f4f6fa"/>
  <rect x="40" y="222" width="180" height="10" rx="5" fill="#182746"/>

  <text data-key="screen.enter-manually.code-label" x="24" y="280" font-family="ui-sans-serif,system-ui,sans-serif" font-size="11" fill="#5b6b8c">ACTIVATION CODE</text>
  <rect x="20" y="288" width="260" height="52" rx="14" fill="#f4f6fa"/>
  <rect x="40" y="306" width="140" height="10" rx="5" fill="#182746"/>

  <text data-key="screen.enter-manually.apn-label" x="24" y="364" font-family="ui-sans-serif,system-ui,sans-serif" font-size="11" fill="#5b6b8c">APN (ACCESS POINT NAME)</text>
  <rect x="20" y="372" width="260" height="52" rx="14" fill="#f4f6fa"/>
  <rect x="40" y="390" width="80" height="10" rx="5" fill="#182746"/>

  <rect x="30" y="450" width="240" height="50" rx="25" fill="#007aff"/>
  <text data-key="screen.enter-manually.next" data-maxw="224" x="150" y="482" text-anchor="middle" font-family="ui-sans-serif,system-ui,sans-serif" font-size="14" font-weight="700" fill="#ffffff">Next</text>
</svg>
