<svg viewBox="0 0 300 630" xmlns="http://www.w3.org/2000/svg">
  <rect width="300" height="630" fill="#ffffff"/><text x="24" y="27" font-family="ui-sans-serif,system-ui,sans-serif" font-size="14" font-weight="600" fill="#182746">9:41</text><g stroke="#182746" stroke-width="1.4" fill="none" opacity="0.85"><path d="M236 22 l4 -6 l4 6z" fill="#182746" stroke="none"/><path d="M248 22 a7 7 0 0 1 10 0"/><rect x="264" y="15" width="16" height="9" rx="2"/><rect x="266" y="17" width="9" height="5" fill="#182746" stroke="none"/></g>
  <text data-key="screen.open-cellular.title" x="24" y="56" font-family="ui-sans-serif,system-ui,sans-serif" font-size="20" font-weight="700" fill="#182746">Settings</text>
  <rect x="20" y="80" width="260" height="56" rx="14" fill="#f4f6fa"/>
  <rect x="40" y="98" width="140" height="10" rx="5" fill="#5b6b8c"/>
  <rect x="20" y="146" width="260" height="56" rx="14" fill="#baddff"/>
  <circle cx="46" cy="174" r="12" fill="#182746"/>
  <text data-key="screen.open-cellular.row" x="70" y="179" font-family="ui-sans-serif,system-ui,sans-serif" font-size="15" fill="#182746">Cellular</text>
  <path d="M255 174 l8 -8 M255 174 l8 8" stroke="#182746" stroke-width="3" fill="none" stroke-linecap="round"/>
  <rect x="20" y="212" width="260" height="56" rx="14" fill="#f4f6fa"/>
  <rect x="40" y="230" width="120" height="10" rx="5" fill="#5b6b8c"/>
  <rect x="20" y="278" width="260" height="56" rx="14" fill="#f4f6fa"/>
  <rect x="40" y="296" width="100" height="10" rx="5" fill="#5b6b8c"/>
<rect x="20" y="350" width="260" height="56" rx="14" fill="#f4f6fa"/><circle cx="48" cy="378" r="12" fill="#c9d2de"/><rect x="72" y="373" width="130" height="10" rx="5" fill="#c9d2de"/><rect x="20" y="414" width="260" height="56" rx="14" fill="#f4f6fa"/><circle cx="48" cy="442" r="12" fill="#c9d2de"/><rect x="72" y="437" width="104" height="10" rx="5" fill="#c9d2de"/><rect x="20" y="478" width="260" height="56" rx="14" fill="#f4f6fa"/><circle cx="48" cy="506" r="12" fill="#c9d2de"/><rect x="72" y="501" width="146" height="10" rx="5" fill="#c9d2de"/></svg>
