<svg viewBox="0 0 300 630" xmlns="http://www.w3.org/2000/svg">
  <rect width="300" height="630" fill="#f2f2f7"/><text x="24" y="27" font-family="ui-sans-serif,system-ui,sans-serif" font-size="14" font-weight="600" fill="#182746">9:41</text><g stroke="#182746" stroke-width="1.4" fill="none" opacity="0.85"><path d="M236 22 l4 -6 l4 6z" fill="#182746" stroke="none"/><path d="M248 22 a7 7 0 0 1 10 0"/><rect x="264" y="15" width="16" height="9" rx="2"/><rect x="266" y="17" width="9" height="5" fill="#182746" stroke="none"/></g>
  <text data-key="screen.line-preferences.title" x="24" y="54" font-family="ui-sans-serif,-apple-system,system-ui,sans-serif" font-size="18" font-weight="700" fill="#182746">Default Line</text>
  <text data-key="screen.line-preferences.section" x="24" y="66" font-family="ui-sans-serif,-apple-system,system-ui,sans-serif" font-size="11" fill="#5b6b8c">FOR CALLS, SMS &amp; IMESSAGE</text>

  <rect x="20" y="80" width="260" height="56" rx="14" fill="#ffffff"/>
  <text data-key="screen.line-preferences.original" x="40" y="114" font-family="ui-sans-serif,-apple-system,system-ui,sans-serif" font-size="15" font-weight="700" fill="#182746">Original SIM</text>
  <path d="M244 108 l8 8 l16 -18" stroke="#007aff" stroke-width="3" fill="none" stroke-linecap="round" stroke-linejoin="round"/>

  <rect x="20" y="146" width="260" height="56" rx="14" fill="#ffffff"/>
  <text data-key="screen.line-preferences.esim" x="40" y="180" font-family="ui-sans-serif,-apple-system,system-ui,sans-serif" font-size="15" fill="#182746">Telemeteor eSIM</text>
<rect x="20" y="218" width="260" height="56" rx="14" fill="#ffffff"/><circle cx="48" cy="246" r="12" fill="#c9d2de"/><rect x="72" y="241" width="130" height="10" rx="5" fill="#c9d2de"/><rect x="20" y="282" width="260" height="56" rx="14" fill="#ffffff"/><circle cx="48" cy="310" r="12" fill="#c9d2de"/><rect x="72" y="305" width="104" height="10" rx="5" fill="#c9d2de"/><rect x="20" y="346" width="260" height="56" rx="14" fill="#ffffff"/><circle cx="48" cy="374" r="12" fill="#c9d2de"/><rect x="72" y="369" width="146" height="10" rx="5" fill="#c9d2de"/><rect x="20" y="410" width="260" height="56" rx="14" fill="#ffffff"/><circle cx="48" cy="438" r="12" fill="#c9d2de"/><rect x="72" y="433" width="118" height="10" rx="5" fill="#c9d2de"/><rect x="20" y="474" width="260" height="56" rx="14" fill="#ffffff"/><circle cx="48" cy="502" r="12" fill="#c9d2de"/><rect x="72" y="497" width="136" height="10" rx="5" fill="#c9d2de"/></svg>
